<svg version="1.1" viewBox="0 0 800 800" xmlns="http://www.w3.org/2000/svg">
    <path fill="#1a1a1a" d="M 725,240.4502 C 599.72623,215.1512 467.21032,207.87255 351.53023,153.50536 289.24892,124.23451 227.63668,84.63827 187.17329,28.5714 c 11.87996,78.24421 64.00031,143.3292 115.43923,201.8848 45.32736,51.4257 7.80642,111.9124 -7.72987,164.1125 C 250.86288,532.9926 184.90281,670.2671 75,771.4286 148.02395,756.6076 285.60493,598.1241 330.12267,525.721 378.57954,456.0998 411.74954,375.8178 472.05604,314.363 506.22027,280.5976 557.24701,282.6114 602.58595,275.6948 644.05169,269.3691 689.43235,263.7172 725,240.4502 Z"/>
    <g fill="#4d4d4d">
        <path d="m 240.47604,465.4924 c 0,0 -24.47538,33.2614 -2.5103,56.4816 21.9651,23.2203 89.11549,25.7305 89.11549,25.7305 0,0 -67.77796,-10.3549 -82.83973,-36.0854 -15.06178,-25.7306 -3.76545,-46.1267 -3.76546,-46.1267 z"/>
        <path d="m 412.6211,400.9263 c 0,0 24.47537,33.2614 2.51029,56.4816 -21.96509,23.2203 -89.11548,25.7306 -89.11548,25.7306 0,0 67.77797,-10.355 82.83972,-36.0855 15.0618,-25.7306 3.76547,-46.1267 3.76547,-46.1267 z"/>
        <path d="m 281.07186,379.462 c -0.88752,58.7984 52.80767,66.5642 52.80767,66.5642 0,0 -26.43197,-16.0274 -35.72282,-27.957 -8.64707,-11.1029 -17.08484,-38.6072 -17.08485,-38.6072 z"/>
    </g>
</svg>
