<svg fill="currentColor" version="1.1" viewBox="0 0 16 16" xmlns="http://www.w3.org/2000/svg">
 <path d="m13.405 5.027a5.001 5.001 0 0 0-9.499-1.004 3.5 3.5 0 1 0-0.406 6.977h9.5a3 3 0 0 0 0.405-5.973z"/>
 <path d="m4.158 12.025a0.5 0.5 0 0 1 0.316 0.633l-0.5 1.5a0.5 0.5 0 0 1-0.948-0.316l0.5-1.5a0.5 0.5 0 0 1 0.632-0.317zm6 0a0.5 0.5 0 0 1 0.316 0.633l-0.5 1.5a0.5 0.5 0 0 1-0.948-0.316l0.5-1.5a0.5 0.5 0 0 1 0.632-0.317zm-3.5 1.5a0.5 0.5 0 0 1 0.316 0.633l-0.5 1.5a0.5 0.5 0 0 1-0.948-0.316l0.5-1.5a0.5 0.5 0 0 1 0.632-0.317zm6 0a0.5 0.5 0 0 1 0.316 0.633l-0.5 1.5a0.5 0.5 0 1 1-0.948-0.316l0.5-1.5a0.5 0.5 0 0 1 0.632-0.317z" fill="#68f3ff"/>
</svg>
