<svg fill="currentColor" viewBox="0 0 16 16" xmlns="http://www.w3.org/2000/svg">
 <path d="m13.405 4.027a5.001 5.001 0 0 0-9.499-1.004 3.5 3.5 0 1 0-0.406 6.977h9.5a3 3 0 0 0 0.405-5.973z"/>
 <path d="m7.053 11.276a0.5 0.5 0 0 1 0.447-0.276h1a0.5 0.5 0 0 1 0.474 0.658l-0.28 0.842h0.806a0.5 0.5 0 0 1 0.39 0.812l-2 2.5a0.5 0.5 0 0 1-0.875-0.433l0.345-1.379h-0.86a0.5 0.5 0 0 1-0.447-0.724z" fill="#fff421"/>
 <path d="m2.658 11.026a0.5 0.5 0 0 1 0.316 0.632l-0.5 1.5a0.5 0.5 0 1 1-0.948-0.316l0.5-1.5a0.5 0.5 0 0 1 0.632-0.316zm9.5 0a0.5 0.5 0 0 1 0.316 0.632l-0.5 1.5a0.5 0.5 0 0 1-0.948-0.316l0.5-1.5a0.5 0.5 0 0 1 0.632-0.316zm-7.5 1.5a0.5 0.5 0 0 1 0.316 0.632l-0.5 1.5a0.5 0.5 0 1 1-0.948-0.316l0.5-1.5a0.5 0.5 0 0 1 0.632-0.316zm9.5 0a0.5 0.5 0 0 1 0.316 0.632l-0.5 1.5a0.5 0.5 0 0 1-0.948-0.316l0.5-1.5a0.5 0.5 0 0 1 0.632-0.316z" fill="#6bf3ff"/>
</svg>
