<svg fill="currentColor" viewBox="0 0 16 16" xmlns="http://www.w3.org/2000/svg">
 <path d="m15.314 5.1134c0.21387 0.175 0.24522 0.49031 0.07 0.704l-4.5 5.5c-0.18727 0.22858-0.53086 0.24576-0.74 0.037l-2.587-2.587-3.656 5.027c-0.39701 0.50483-1.1663-0.05497-0.808-0.588l4-5.5c0.18054-0.2487 0.54059-0.2772 0.758-0.06l2.609 2.61 4.15-5.073c0.175-0.21387 0.49031-0.24522 0.704-0.07m-1-4c0.21387 0.175 0.24522 0.49031 0.07 0.704l-4.5 5.5c-0.18727 0.22858-0.53086 0.24576-0.74 0.037l-2.587-2.587-3.656 5.027c-0.39701 0.50483-1.1663-0.05497-0.808-0.588l4-5.5c0.18054-0.2487 0.54059-0.2772 0.758-0.06l2.609 2.61 4.15-5.073c0.175-0.21387 0.49031-0.24522 0.704-0.07m-14.314-1.1134h1v15h15v1h-16zm14.817 3.113c0.21387 0.175 0.24522 0.49031 0.07 0.704l-4.5 5.5c-0.18727 0.22858-0.53086 0.24576-0.74 0.037l-2.587-2.587-3.656 5.027c-0.39701 0.50483-1.1663-0.05497-0.808-0.588l4-5.5c0.18054-0.2487 0.54059-0.2772 0.758-0.06l2.609 2.61 4.15-5.073c0.175-0.21387 0.49031-0.24522 0.704-0.07"/>
</svg>
