<svg viewBox="0 0 820 280" fill="none" xmlns="http://www.w3.org/2000/svg">
    <g fill="#1A1A1A">
        <!-- Funnel -->
        <path d="M243.875 80.1688C196.897 70.6817 147.204 67.9522 103.824 47.5645C80.4683 36.5879 57.3638 21.7393 42.19 0.714264C46.645 30.0558 66.1901 54.4627 85.4797 76.4211C102.477 95.7057 88.4071 118.388 82.581 137.963C66.0736 189.872 41.3386 241.35 0.125 279.286C27.509 273.728 79.1019 214.297 95.796 187.145C113.967 161.037 126.406 130.932 149.021 107.886C161.833 95.2241 180.968 95.9793 197.97 93.3855C213.519 91.0134 230.537 88.8939 243.875 80.1688Z"/>
        
        <!-- Text -->
        <path d="M190.59 244.273C181.499 244.273 173.805 241.834 167.508 236.957C161.258 232.033 156.807 225.262 154.156 216.645C151.504 208.027 151.102 198.179 152.948 187.099C154.747 176.304 158.299 166.716 163.602 158.335C168.952 149.907 175.486 143.302 183.204 138.52C190.922 133.69 199.208 131.276 208.062 131.276C217.2 131.276 224.894 133.761 231.144 138.733C237.442 143.657 241.916 150.452 244.567 159.116C247.219 167.734 247.669 177.559 245.917 188.591C244.118 199.339 240.519 208.927 235.121 217.355C229.771 225.736 223.237 232.317 215.519 237.099C207.801 241.882 199.492 244.273 190.59 244.273ZM190.732 236.247C198.497 236.247 205.647 234.069 212.181 229.713C218.715 225.357 224.184 219.462 228.587 212.028C233.038 204.595 235.997 196.285 237.465 187.099C238.933 178.198 238.72 170.149 236.826 162.952C234.932 155.707 231.547 149.978 226.67 145.764C221.793 141.503 215.614 139.372 208.133 139.372C200.415 139.372 193.265 141.574 186.684 145.977C180.15 150.381 174.657 156.299 170.207 163.733C165.756 171.167 162.797 179.453 161.329 188.591C159.814 197.445 160.003 205.494 161.897 212.739C163.838 219.936 167.247 225.665 172.124 229.926C177.049 234.14 183.251 236.247 190.732 236.247Z"/>
        <path d="M266.815 242L284.997 132.909H293.449L290.608 149.955H291.389C294.609 144.367 299.344 139.893 305.594 136.531C311.844 133.122 318.567 131.418 325.764 131.418C326.569 131.418 327.327 131.418 328.037 131.418C328.747 131.418 329.457 131.441 330.168 131.489L328.676 140.224C328.108 140.177 327.421 140.106 326.616 140.011C325.859 139.869 324.912 139.798 323.776 139.798C317.715 139.798 312.104 141.1 306.943 143.705C301.782 146.309 297.473 149.907 294.017 154.5C290.561 159.045 288.359 164.254 287.412 170.125L275.48 242H266.815Z"/>
        <path d="M355.363 171.261L343.644 242H334.979L353.161 132.909H361.613L358.772 150.168H359.624C363.033 144.533 367.863 140.011 374.113 136.602C380.363 133.193 387.37 131.489 395.136 131.489C402.427 131.489 408.606 133.051 413.673 136.176C418.739 139.301 422.361 143.752 424.539 149.528C426.717 155.258 427.143 162.099 425.817 170.054L413.815 242H405.15L417.082 170.409C418.597 161.129 417.129 153.671 412.678 148.037C408.275 142.355 401.551 139.514 392.508 139.514C386.4 139.514 380.718 140.84 375.462 143.491C370.254 146.143 365.874 149.86 362.323 154.642C358.772 159.377 356.452 164.917 355.363 171.261Z"/>
        <path d="M478.445 244.344C472.148 244.344 466.585 243.089 461.755 240.58C456.973 238.07 453.398 234.401 451.031 229.571C448.663 224.741 448.024 218.87 449.113 211.957C449.918 207.412 451.409 203.411 453.587 199.955C455.765 196.498 458.748 193.515 462.536 191.006C466.324 188.496 470.964 186.437 476.457 184.827C481.996 183.169 488.46 181.891 495.846 180.991C501.528 180.329 506.594 179.666 511.045 179.003C515.495 178.34 519.094 177.322 521.84 175.949C524.586 174.576 526.196 172.516 526.67 169.77L527.38 165.224C528.706 157.317 527.356 151.02 523.332 146.332C519.307 141.598 512.891 139.23 504.085 139.23C496.319 139.23 489.359 140.982 483.204 144.486C477.049 147.942 472.456 152.322 469.425 157.625L461.897 154.571C464.833 149.363 468.549 145.03 473.048 141.574C477.593 138.117 482.565 135.537 487.962 133.832C493.407 132.128 498.947 131.276 504.582 131.276C509.459 131.276 514.004 131.962 518.218 133.335C522.432 134.708 526.031 136.792 529.013 139.585C532.044 142.379 534.198 145.954 535.477 150.31C536.802 154.618 536.944 159.779 535.903 165.793L523.261 242H514.596L517.934 222.327H517.295C514.738 226.399 511.518 230.116 507.636 233.477C503.8 236.792 499.421 239.443 494.496 241.432C489.572 243.373 484.222 244.344 478.445 244.344ZM480.079 236.318C486.897 236.318 493.242 234.661 499.113 231.347C505.031 227.985 510.003 223.392 514.028 217.568C518.1 211.744 520.728 205.139 521.911 197.753L524.681 181.702C523.403 182.649 521.674 183.501 519.496 184.259C517.318 184.969 514.88 185.608 512.181 186.176C509.53 186.697 506.76 187.17 503.871 187.597C501.031 187.975 498.261 188.33 495.562 188.662C487.465 189.609 480.765 191.077 475.462 193.065C470.159 195.007 466.064 197.563 463.175 200.736C460.335 203.908 458.512 207.743 457.707 212.241C456.523 219.675 458.038 225.546 462.252 229.855C466.514 234.164 472.456 236.318 480.079 236.318Z"/>
        <path d="M596.805 244.273C587.998 244.273 580.73 241.858 575.001 237.028C569.272 232.199 565.318 225.546 563.14 217.071C560.962 208.548 560.772 198.771 562.572 187.739C564.418 176.801 567.851 167.095 572.87 158.619C577.889 150.097 584.068 143.42 591.407 138.591C598.746 133.714 606.772 131.276 615.484 131.276C621.734 131.276 626.966 132.483 631.18 134.898C635.441 137.265 638.803 140.414 641.265 144.344C643.774 148.274 645.479 152.582 646.379 157.27H647.231L657.316 96.5454H665.91L641.762 242H633.31L637.288 218.207H636.293C633.784 222.895 630.635 227.227 626.847 231.205C623.059 235.134 618.656 238.307 613.637 240.722C608.618 243.089 603.007 244.273 596.805 244.273ZM598.154 236.247C605.54 236.247 612.288 234.14 618.396 229.926C624.504 225.665 629.617 219.888 633.737 212.597C637.856 205.258 640.697 196.948 642.259 187.668C643.822 178.387 643.798 170.125 642.188 162.881C640.626 155.589 637.572 149.86 633.026 145.693C628.481 141.479 622.515 139.372 615.129 139.372C607.647 139.372 600.877 141.503 594.816 145.764C588.755 149.978 583.689 155.731 579.617 163.023C575.545 170.314 572.752 178.529 571.237 187.668C569.721 196.806 569.698 205.044 571.165 212.384C572.681 219.723 575.687 225.546 580.185 229.855C584.683 234.116 590.673 236.247 598.154 236.247Z"/>
        <path d="M681.109 242L699.29 132.909H707.884L689.702 242H681.109ZM707.671 113.52C705.635 113.52 703.931 112.833 702.558 111.46C701.232 110.04 700.664 108.312 700.853 106.276C700.948 104.571 701.705 103.08 703.126 101.801C704.546 100.523 706.18 99.8835 708.026 99.8835C710.062 99.8835 711.743 100.594 713.069 102.014C714.395 103.387 714.987 105.068 714.844 107.057C714.702 108.809 713.921 110.324 712.501 111.602C711.128 112.881 709.518 113.52 707.671 113.52Z"/>
        <path d="M766.62 244.273C757.198 244.273 749.385 241.811 743.183 236.886C736.98 231.962 732.624 225.239 730.114 216.716C727.652 208.193 727.297 198.558 729.049 187.81C730.801 176.967 734.376 167.284 739.773 158.761C745.171 150.239 751.824 143.539 759.731 138.662C767.638 133.738 776.161 131.276 785.299 131.276C792.259 131.276 798.344 132.696 803.552 135.537C808.76 138.378 812.808 142.331 815.697 147.398C818.585 152.464 820.005 158.335 819.958 165.011H811.151C811.009 157.436 808.571 151.28 803.836 146.545C799.148 141.763 792.709 139.372 784.518 139.372C777.037 139.372 770.005 141.455 763.424 145.622C756.89 149.741 751.35 155.423 746.805 162.668C742.259 169.912 739.205 178.245 737.643 187.668C736.128 196.901 736.317 205.187 738.211 212.526C740.152 219.817 743.609 225.594 748.58 229.855C753.599 234.116 759.897 236.247 767.472 236.247C772.87 236.247 778.007 235.182 782.884 233.051C787.761 230.873 792.046 227.843 795.739 223.96C799.433 220.03 802.179 215.437 803.978 210.182H812.785C810.607 216.953 807.221 222.895 802.629 228.009C798.083 233.122 792.709 237.123 786.506 240.011C780.351 242.852 773.722 244.273 766.62 244.273Z"/>
    </g>
    <g fill="#4D4D4D">
        <path d="M62.1785 164.56C62.1785 164.56 53.0003 177.033 61.2372 185.74C69.4741 194.448 94.6555 195.389 94.6555 195.389C94.6555 195.389 69.2387 191.506 63.5906 181.857C57.9424 172.208 62.1785 164.56 62.1785 164.56Z"/>
        <path d="M126.733 140.347C126.733 140.347 135.911 152.82 127.674 161.528C119.437 170.236 94.256 171.177 94.256 171.177C94.256 171.177 119.673 167.294 125.321 157.645C130.969 147.996 126.733 140.347 126.733 140.347Z" />
        <path d="M77.4019 132.298C77.0691 154.348 97.2048 157.26 97.2048 157.26C97.2048 157.26 87.2928 151.25 83.8088 146.776C80.5661 142.612 77.402 132.298 77.4019 132.298Z"/>
    </g>

</svg>
