<svg id="svg5" width="100mm" height="100mm" version="1.1" viewBox="0 0 100 100" xmlns="http://www.w3.org/2000/svg">
 <g id="layer1">
  <text id="text500" x="47.57336" y="7.6284218" fill="#ffffff" font-family="Consolas" font-size="8.8194px" stroke-width=".26458" style="font-variant-caps:normal;font-variant-east-asian:normal;font-variant-ligatures:normal;font-variant-numeric:normal" xml:space="preserve"><tspan id="tspan498" x="47.57336" y="7.6284218" font-family="Consolas" font-size="8.8194px" stroke-width=".26458" style="font-variant-caps:normal;font-variant-east-asian:normal;font-variant-ligatures:normal;font-variant-numeric:normal">N</tspan></text>
  <text id="text500-9" x="46.840992" y="97.922935" fill="#ffffff" font-family="Consolas" font-size="8.8194px" stroke-width=".26458" style="font-variant-caps:normal;font-variant-east-asian:normal;font-variant-ligatures:normal;font-variant-numeric:normal" xml:space="preserve"><tspan id="tspan498-3" x="46.840992" y="97.922935" font-family="Consolas" font-size="8.8194px" stroke-width=".26458" style="font-variant-caps:normal;font-variant-east-asian:normal;font-variant-ligatures:normal;font-variant-numeric:normal">S</tspan></text>
  <text id="text500-9-3" x="92.934418" y="52.814213" fill="#ffffff" font-family="Consolas" font-size="8.8194px" stroke-width=".26458" style="font-variant-caps:normal;font-variant-east-asian:normal;font-variant-ligatures:normal;font-variant-numeric:normal" xml:space="preserve"><tspan id="tspan633" x="92.934418" y="52.814213" font-family="Consolas" font-size="8.8194px" stroke-width=".26458" style="font-variant-caps:normal;font-variant-east-asian:normal;font-variant-ligatures:normal;font-variant-numeric:normal">E</tspan></text>
  <text id="text500-9-3-8" x="2.8062134" y="52.814213" fill="#ffffff" font-family="Consolas" font-size="8.8194px" stroke-width=".26458" style="font-variant-caps:normal;font-variant-east-asian:normal;font-variant-ligatures:normal;font-variant-numeric:normal" xml:space="preserve"><tspan id="tspan498-3-4-0" x="2.8062134" y="52.814213" font-family="Consolas" font-size="8.8194px" stroke-width=".26458" style="font-variant-caps:normal;font-variant-east-asian:normal;font-variant-ligatures:normal;font-variant-numeric:normal">W</tspan></text>
  <path id="path3058" class="UnoptimicedTransforms" d="m49.998 10a40 40 0 0 0-2.4934 0.08733 40 40 0 0 0-0.66921 0.04961 40 40 0 0 0-2.0423 0.21394 40 40 0 0 0-0.48731 0.06046 40 40 0 0 0-2.4319 0.42891 40 40 0 0 0-0.56896 0.12816 40 40 0 0 0-1.9487 0.48576 40 40 0 0 0-0.60151 0.1664 40 40 0 0 0-2.3518 0.76378 40 40 0 0 0-0.08423 0.03256l1.7105 4.6995a35 35 0 0 1 0.40876-0.15193 35 35 0 0 1 1.2433-0.40928 35 35 0 0 1 1.2578-0.36225 35 35 0 0 1 1.2707-0.31523 35 35 0 0 1 1.2811-0.26768 35 35 0 0 1 1.2904-0.21911 35 35 0 0 1 1.2981-0.17105 35 35 0 0 1 1.3033-0.12196 35 35 0 0 1 1.3069-0.07338 35 35 0 0 1 1.3084-0.02429 35 35 0 0 1 0.90124 0.01137 35 35 0 0 1 0.90072 0.03514 35 35 0 0 1 0.89917 0.05788 35 35 0 0 1 0.89762 0.08113 35 35 0 0 1 0.89504 0.10387 35 35 0 0 1 0.89245 0.12764 35 35 0 0 1 0.88832 0.14986 35 35 0 0 1 0.8847 0.17312 35 35 0 0 1 0.87953 0.19585 35 35 0 0 1 0.87488 0.21808 35 35 0 0 1 0.86816 0.24081 35 35 0 0 1 0.86196 0.26303 35 35 0 0 1 0.85524 0.28474 35 35 0 0 1 0.47077 0.17105l1.711-4.701a40 40 0 0 0-0.01447-0.0052 40 40 0 0 0-2.6221-0.85163 40 40 0 0 0-0.04186-0.01189 40 40 0 0 0-2.6582-0.66301 40 40 0 0 0-0.05736-0.01189 40 40 0 0 0-2.6706-0.47129 40 40 0 0 0-0.0925-0.01344 40 40 0 0 0-2.7125-0.28474 40 40 0 0 0-0.03669-0.0026 40 40 0 0 0-2.7745-0.09715z" fill="#00f"/>
  <path id="path2154" d="m50 9.9999a40 40 0 0 0-40 40 40 40 0 0 0 40 40 40 40 0 0 0 40-40 40 40 0 0 0-40-40zm0 5.0002a35 35 0 0 1 0.90124 0.01137 35 35 0 0 1 0.90072 0.03514 35 35 0 0 1 0.89917 0.05788 35 35 0 0 1 0.89762 0.08113 35 35 0 0 1 0.89503 0.10387 35 35 0 0 1 0.89246 0.12764 35 35 0 0 1 0.88831 0.14986 35 35 0 0 1 0.8847 0.17312 35 35 0 0 1 0.87954 0.19585 35 35 0 0 1 0.87488 0.21808 35 35 0 0 1 0.86816 0.24081 35 35 0 0 1 0.86197 0.26303 35 35 0 0 1 0.85524 0.28474 35 35 0 0 1 0.84698 0.30748 35 35 0 0 1 0.83922 0.32866 35 35 0 0 1 0.83044 0.35037 35 35 0 0 1 0.82114 0.37104 35 35 0 0 1 0.81132 0.39274 35 35 0 0 1 0.80099 0.41341 35 35 0 0 1 0.79013 0.43357 35 35 0 0 1 0.77825 0.45424 35 35 0 0 1 0.76687 0.47387 35 35 0 0 1 0.75396 0.49351 35 35 0 0 1 0.74156 0.51263 35 35 0 0 1 0.7276 0.53123 35 35 0 0 1 0.71366 0.55035 35 35 0 0 1 0.6997 0.56844 35 35 0 0 1 0.68419 0.58601 35 35 0 0 1 0.66973 0.60358 35 35 0 0 1 0.65319 0.62115 35 35 0 0 1 0.63717 0.63717 35 35 0 0 1 0.62063 0.65319 35 35 0 0 1 0.60358 0.66921 35 35 0 0 1 0.58653 0.68471 35 35 0 0 1 0.56844 0.6997 35 35 0 0 1 0.54984 0.71365 35 35 0 0 1 0.53175 0.7276 35 35 0 0 1 0.51263 0.74156 35 35 0 0 1 0.49351 0.75396 35 35 0 0 1 0.47387 0.76636 35 35 0 0 1 0.45424 0.77876 35 35 0 0 1 0.43356 0.79013 35 35 0 0 1 0.41341 0.80098 35 35 0 0 1 0.39223 0.81132 35 35 0 0 1 0.37155 0.82114 35 35 0 0 1 0.35037 0.82992 35 35 0 0 1 0.32866 0.83923 35 35 0 0 1 0.30696 0.84749 35 35 0 0 1 0.28525 0.85473 35 35 0 0 1 0.26304 0.86248 35 35 0 0 1 0.24081 0.86816 35 35 0 0 1 0.21807 0.87436 35 35 0 0 1 0.19586 0.88005 35 35 0 0 1 0.17311 0.88418 35 35 0 0 1 0.14986 0.88884 35 35 0 0 1 0.12713 0.89245 35 35 0 0 1 0.10438 0.89504 35 35 0 0 1 0.0811 0.89762 35 35 0 0 1 0.0579 0.89917 35 35 0 0 1 0.0351 0.90072 35 35 0 0 1 0.0114 0.90124 35 35 0 0 1-0.0977 2.6153 35 35 0 0 1-0.293 2.6009 35 35 0 0 1-0.48679 2.5719 35 35 0 0 1-0.67748 2.528 35 35 0 0 1-0.86455 2.4706 35 35 0 0 1-1.0464 2.3988 35 35 0 0 1-1.2232 2.3141 35 35 0 0 1-1.3927 2.2164 35 35 0 0 1-1.5539 2.1058 35 35 0 0 1-1.7074 1.9839 35 35 0 0 1-1.851 1.851 35 35 0 0 1-1.9838 1.7074 35 35 0 0 1-2.1058 1.5539 35 35 0 0 1-2.2164 1.3927 35 35 0 0 1-2.3141 1.2232 35 35 0 0 1-2.3988 1.0464 35 35 0 0 1-2.4706 0.86455 35 35 0 0 1-2.528 0.67748 35 35 0 0 1-2.5719 0.48679 35 35 0 0 1-2.6009 0.293 35 35 0 0 1-2.6154 0.09767 35 35 0 0 1-2.6153-0.09767 35 35 0 0 1-2.6014-0.293 35 35 0 0 1-2.5714-0.48679 35 35 0 0 1-2.5285-0.67748 35 35 0 0 1-2.4701-0.86455 35 35 0 0 1-2.3993-1.0464 35 35 0 0 1-2.3141-1.2232 35 35 0 0 1-2.2159-1.3927 35 35 0 0 1-2.1063-1.5539 35 35 0 0 1-1.9839-1.7074 35 35 0 0 1-1.8505-1.851 35 35 0 0 1-1.7074-1.9839 35 35 0 0 1-1.5544-2.1058 35 35 0 0 1-1.3922-2.2164 35 35 0 0 1-1.2232-2.3141 35 35 0 0 1-1.0464-2.3988 35 35 0 0 1-0.86455-2.4706 35 35 0 0 1-0.67748-2.528 35 35 0 0 1-0.48679-2.5719 35 35 0 0 1-0.29301-2.6009 35 35 0 0 1-0.0977-2.6153 35 35 0 0 1 0.0977-2.6153 35 35 0 0 1 0.29301-2.6014 35 35 0 0 1 0.48679-2.5714 35 35 0 0 1 0.67748-2.5285 35 35 0 0 1 0.86455-2.4701 35 35 0 0 1 1.0464-2.3993 35 35 0 0 1 1.2232-2.3141 35 35 0 0 1 1.3922-2.2159 35 35 0 0 1 1.5544-2.1063 35 35 0 0 1 1.7074-1.9839 35 35 0 0 1 1.8505-1.8505 35 35 0 0 1 1.9839-1.7074 35 35 0 0 1 2.1063-1.5544 35 35 0 0 1 2.2159-1.3922 35 35 0 0 1 2.3141-1.2232 35 35 0 0 1 2.3993-1.0464 35 35 0 0 1 2.4701-0.86455 35 35 0 0 1 2.5285-0.67748 35 35 0 0 1 2.5714-0.48679 35 35 0 0 1 2.6014-0.29301 35 35 0 0 1 2.6153-0.09767z" fill="none" stroke="#fefefe" stroke-width=".26458"/>
  <rect id="rect3218" x="49.25" y="10" width="1.5" height="5" display="none" fill="#00f"/>
  <path id="path5576" d="m50 9.9996-2.5 5h5z" fill="#fff"/>
 </g>
</svg>
